<?xml version="1.0" encoding="UTF-8"?>
<svg width="109px" height="31px" viewBox="0 0 109 31" version="1.1" xmlns="http://www.w3.org/2000/svg" xmlns:xlink="http://www.w3.org/1999/xlink">
    <!-- Generator: Sketch 54.1 (76490) - https://sketchapp.com -->
    <title>形状结合</title>
    <desc>Created with Sketch.</desc>
    <g id="页面1" stroke="none" stroke-width="1" fill="none" fill-rule="evenodd">
        <g id="画板" transform="translate(-10.000000, -17.000000)" fill="#FFFFFF" fill-rule="nonzero">
            <path d="M116.792893,31.5 L103.646447,18.3535534 C103.451184,18.1582912 103.451184,17.8417088 103.646447,17.6464466 C103.841709,17.4511845 104.158291,17.4511845 104.353553,17.6464466 L118.353553,31.6464466 C118.444036,31.7369288 118.5,31.8619288 118.5,32 C118.5,32.1318727 118.448948,32.2518214 118.365529,32.3411604 L104.365528,47.3411591 C104.177111,47.5430345 103.860716,47.5539446 103.658841,47.3655276 C103.456966,47.1771107 103.446055,46.8607162 103.634472,46.6588409 L116.849391,32.5 L10.5,32.5 C10.2238576,32.5 10,32.2761424 10,32 C10,31.7238576 10.2238576,31.5 10.5,31.5 L116.792893,31.5 Z" id="形状结合"></path>
        </g>
    </g>
</svg>