<?xml version="1.0" standalone="no"?><!DOCTYPE svg PUBLIC "-//W3C//DTD SVG 1.1//EN" "http://www.w3.org/Graphics/SVG/1.1/DTD/svg11.dtd"><svg class="icon" width="200px" height="200.00px" viewBox="0 0 1024 1024" version="1.1" xmlns="http://www.w3.org/2000/svg"><path d="M778.24 163.84h-30.72c-4.48 0-7.68-3.2-7.68-7.68s3.2-7.68 7.68-7.68h30.72c4.48 0 7.68 3.2 7.68 7.68 0 3.84-3.2 7.68-7.68 7.68z" fill="#ffffff" /><path d="M768.64 240.64h-21.12c-4.48 0-7.68-3.2-7.68-7.68s3.2-7.68 7.68-7.68h21.12c4.48 0 7.68 3.2 7.68 7.68s-3.84 7.68-7.68 7.68zM770.56 266.24h-22.4c-4.48 0-7.68-3.2-7.68-7.68s3.2-7.68 7.68-7.68h22.4c4.48 0 7.68 3.2 7.68 7.68s-3.84 7.68-7.68 7.68zM766.72 215.04h-19.2c-4.48 0-7.68-3.2-7.68-7.68s3.2-7.68 7.68-7.68h19.2c4.48 0 7.68 3.2 7.68 7.68s-3.2 7.68-7.68 7.68zM772.48 291.84h-24.32c-4.48 0-7.68-3.2-7.68-7.68s3.2-7.68 7.68-7.68h24.32c4.48 0 7.68 3.2 7.68 7.68-0.64 4.48-3.84 7.68-7.68 7.68zM777.6 369.28h-30.08c-4.48 0-7.68-3.2-7.68-7.68s3.2-7.68 7.68-7.68h30.08c4.48 0 7.68 3.2 7.68 7.68s-3.2 7.68-7.68 7.68zM779.52 394.88h-32c-4.48 0-7.68-3.2-7.68-7.68s3.2-7.68 7.68-7.68h32c4.48 0 7.68 3.2 7.68 7.68s-3.84 7.68-7.68 7.68zM775.68 343.68h-28.16c-4.48 0-7.68-3.2-7.68-7.68s3.2-7.68 7.68-7.68h28.16c4.48 0 7.68 3.2 7.68 7.68 0 3.84-3.2 7.68-7.68 7.68zM773.76 317.44h-26.24c-4.48 0-7.68-3.2-7.68-7.68s3.2-7.68 7.68-7.68h26.24c4.48 0 7.68 3.2 7.68 7.68s-3.2 7.68-7.68 7.68zM784.64 471.68h-37.12c-4.48 0-7.68-3.2-7.68-7.68s3.2-7.68 7.68-7.68h37.12c4.48 0 7.68 3.2 7.68 7.68s-3.2 7.68-7.68 7.68zM783.36 446.08h-35.2c-4.48 0-7.68-3.2-7.68-7.68s3.2-7.68 7.68-7.68h35.2c4.48 0 7.68 3.2 7.68 7.68s-3.84 7.68-7.68 7.68zM781.44 420.48h-33.28c-4.48 0-7.68-3.2-7.68-7.68s3.2-7.68 7.68-7.68h33.28c4.48 0 7.68 3.2 7.68 7.68s-3.84 7.68-7.68 7.68z" fill="#ffffff" /><path d="M558.72 106.88h-56.96c-4.48 0-7.68-3.2-7.68-7.68s3.2-7.68 7.68-7.68h56.96c4.48 0 7.68 3.2 7.68 7.68s-3.84 7.68-7.68 7.68z" fill="#ffffff" /><path d="M543.36 132.48h-41.6c-4.48 0-7.68-3.2-7.68-7.68s3.2-7.68 7.68-7.68h41.6c4.48 0 7.68 3.2 7.68 7.68s-3.84 7.68-7.68 7.68zM548.48 209.28h-47.36c-4.48 0-7.68-3.2-7.68-7.68s3.2-7.68 7.68-7.68h47.36c4.48 0 7.68 3.2 7.68 7.68s-3.2 7.68-7.68 7.68zM550.4 234.88h-48.64c-4.48 0-7.68-3.2-7.68-7.68s3.2-7.68 7.68-7.68H550.4c4.48 0 7.68 3.2 7.68 7.68s-3.2 7.68-7.68 7.68zM546.56 183.68h-45.44c-4.48 0-7.68-3.2-7.68-7.68s3.2-7.68 7.68-7.68h45.44c4.48 0 7.68 3.2 7.68 7.68s-3.2 7.68-7.68 7.68zM545.28 158.08h-43.52c-4.48 0-7.68-3.2-7.68-7.68s3.2-7.68 7.68-7.68h43.52c4.48 0 7.68 3.2 7.68 7.68s-3.84 7.68-7.68 7.68zM552.32 261.12h-50.56c-4.48 0-7.68-3.2-7.68-7.68s3.2-7.68 7.68-7.68h50.56c4.48 0 7.68 3.2 7.68 7.68 0 3.84-3.84 7.68-7.68 7.68zM557.44 337.92h-56.32c-4.48 0-7.68-3.2-7.68-7.68s3.2-7.68 7.68-7.68h56.32c4.48 0 7.68 3.2 7.68 7.68s-3.2 7.68-7.68 7.68zM559.36 363.52h-57.6c-4.48 0-7.68-3.2-7.68-7.68s3.2-7.68 7.68-7.68h57.6c4.48 0 7.68 3.2 7.68 7.68s-3.2 7.68-7.68 7.68zM556.16 312.32h-54.4c-4.48 0-7.68-3.2-7.68-7.68s3.2-7.68 7.68-7.68h54.4c4.48 0 7.68 3.2 7.68 7.68-0.64 4.48-3.84 7.68-7.68 7.68zM554.24 286.72h-52.48c-4.48 0-7.68-3.2-7.68-7.68s3.2-7.68 7.68-7.68h52.48c4.48 0 7.68 3.2 7.68 7.68 0 3.84-3.84 7.68-7.68 7.68zM565.12 440.32h-63.36c-4.48 0-7.68-3.2-7.68-7.68s3.2-7.68 7.68-7.68h63.36c4.48 0 7.68 3.2 7.68 7.68s-3.84 7.68-7.68 7.68zM567.04 466.56H501.76c-4.48 0-7.68-3.2-7.68-7.68s3.2-7.68 7.68-7.68h65.28c4.48 0 7.68 3.2 7.68 7.68-0.64 3.84-3.84 7.68-7.68 7.68zM563.2 414.72h-61.44c-4.48 0-7.68-3.2-7.68-7.68s3.2-7.68 7.68-7.68H563.2c4.48 0 7.68 3.2 7.68 7.68s-3.84 7.68-7.68 7.68zM561.28 389.12h-59.52c-4.48 0-7.68-3.2-7.68-7.68s3.2-7.68 7.68-7.68h59.52c4.48 0 7.68 3.2 7.68 7.68s-3.2 7.68-7.68 7.68zM931.84 997.12H60.16c-4.48 0-7.68-3.2-7.68-7.68v-264.96c0-2.56 1.28-5.12 3.84-6.4l42.88-23.68V518.4c0-4.48 3.2-7.68 7.68-7.68h777.6c4.48 0 7.68 3.2 7.68 7.68v176.64l42.88 23.68c2.56 1.28 3.84 3.84 3.84 6.4v264.96c0.64 3.84-2.56 7.04-7.04 7.04z m-864-14.72h856.32V729.6l-42.88-23.68c-2.56-1.28-3.84-3.84-3.84-6.4V526.08H114.56v173.44c0 2.56-1.28 5.12-3.84 6.4l-42.88 23.68v252.8z" fill="#ffffff" /><path d="M423.68 833.92c-1.92 0-3.84-0.64-5.12-1.92-3.2-3.2-3.2-7.68 0-10.88L508.8 729.6c3.2-3.2 7.68-3.2 10.88 0s3.2 7.68 0 10.88L428.8 831.36c-1.28 1.92-3.2 2.56-5.12 2.56zM423.68 869.76c-1.92 0-3.84-0.64-5.12-1.92-3.2-3.2-3.2-7.68 0-10.88L545.28 729.6c3.2-3.2 7.68-3.2 10.88 0s3.2 7.68 0 10.88L428.8 867.84c-1.28 1.28-3.2 1.92-5.12 1.92zM423.68 797.44c-1.92 0-3.84-0.64-5.12-1.92-3.2-3.2-3.2-7.68 0-10.88l54.4-54.4c3.2-3.2 7.68-3.2 10.88 0s3.2 7.68 0 10.88l-54.4 54.4c-1.92 1.28-3.84 1.92-5.76 1.92zM423.68 760.96c-1.92 0-3.84-0.64-5.12-1.92-3.2-3.2-3.2-7.68 0-10.88l18.56-18.56c3.2-3.2 7.68-3.2 10.88 0s3.2 7.68 0 10.88l-18.56 18.56c-1.92 1.28-3.84 1.92-5.76 1.92zM423.68 906.24c-1.92 0-3.84-0.64-5.12-1.92-3.2-3.2-3.2-7.68 0-10.88L563.2 748.16c3.2-3.2 7.68-3.2 10.88 0s3.2 7.68 0 10.88L428.8 904.32c-1.28 1.28-3.2 1.92-5.12 1.92zM441.6 997.12c-1.92 0-3.84-0.64-5.12-1.92-3.2-3.2-3.2-7.68 0-10.88L563.2 856.96c3.2-3.2 7.68-3.2 10.88 0s3.2 7.68 0 10.88l-127.36 127.36c-1.28 1.28-3.2 1.92-5.12 1.92zM477.44 997.12c-1.92 0-3.84-0.64-5.12-1.92-3.2-3.2-3.2-7.68 0-10.88L563.2 893.44c3.2-3.2 7.68-3.2 10.88 0s3.2 7.68 0 10.88l-90.88 90.88c-1.92 1.28-3.84 1.92-5.76 1.92zM423.68 979.2c-1.92 0-3.84-0.64-5.12-1.92-3.2-3.2-3.2-7.68 0-10.88L563.2 821.12c3.2-3.2 7.68-3.2 10.88 0s3.2 7.68 0 10.88L428.8 976.64c-1.28 1.92-3.2 2.56-5.12 2.56zM423.68 942.72c-1.92 0-3.84-0.64-5.12-1.92-3.2-3.2-3.2-7.68 0-10.88L563.2 784.64c3.2-3.2 7.68-3.2 10.88 0s3.2 7.68 0 10.88L428.8 940.8c-1.28 1.28-3.2 1.92-5.12 1.92zM550.4 997.12c-1.92 0-3.84-0.64-5.12-1.92-3.2-3.2-3.2-7.68 0-10.88L563.2 966.4c3.2-3.2 7.68-3.2 10.88 0s3.2 7.68 0 10.88l-18.56 18.56c-1.28 0.64-3.2 1.28-5.12 1.28zM513.92 997.12c-1.92 0-3.84-0.64-5.12-1.92-3.2-3.2-3.2-7.68 0-10.88l54.4-54.4c3.2-3.2 7.68-3.2 10.88 0s3.2 7.68 0 10.88l-54.4 54.4c-1.92 1.28-3.84 1.92-5.76 1.92z" fill="#ffffff" /><path d="M568.96 997.12H423.68c-4.48 0-7.68-3.2-7.68-7.68v-254.72c0-4.48 3.2-7.68 7.68-7.68h145.28c4.48 0 7.68 3.2 7.68 7.68v254.72c-0.64 4.48-3.84 7.68-7.68 7.68z m-138.24-14.72h129.92V742.4H430.72v240zM386.56 997.12H314.24c-4.48 0-7.68-3.2-7.68-7.68V870.4c0-4.48 3.2-7.68 7.68-7.68h72.96c4.48 0 7.68 3.2 7.68 7.68v119.68c-0.64 3.84-3.84 7.04-8.32 7.04z m-65.28-14.72h57.6v-104.32h-57.6v104.32zM678.4 997.12H605.44c-4.48 0-7.68-3.2-7.68-7.68V870.4c0-4.48 3.2-7.68 7.68-7.68H678.4c4.48 0 7.68 3.2 7.68 7.68v119.68c-0.64 3.84-3.84 7.04-7.68 7.04z m-65.28-14.72h57.6v-104.32h-57.6v104.32zM385.92 743.68H148.48c-4.48 0-7.68-3.2-7.68-7.68V565.12c0-4.48 3.2-7.68 7.68-7.68h238.08c4.48 0 7.68 3.2 7.68 7.68V736c-0.64 4.48-3.84 7.68-8.32 7.68z m-230.4-15.36h222.72V572.8H155.52v155.52z" fill="#ffffff" /><path d="M227.84 743.68c-4.48 0-7.68-3.2-7.68-7.68V565.12c0-4.48 3.2-7.68 7.68-7.68s7.68 3.2 7.68 7.68V736c-0.64 4.48-3.84 7.68-7.68 7.68zM306.56 743.68c-4.48 0-7.68-3.2-7.68-7.68V565.12c0-4.48 3.2-7.68 7.68-7.68s7.68 3.2 7.68 7.68V736c0 4.48-3.2 7.68-7.68 7.68z" fill="#ffffff" /><path d="M385.92 657.92H148.48c-4.48 0-7.68-3.2-7.68-7.68s3.2-7.68 7.68-7.68h238.08c4.48 0 7.68 3.2 7.68 7.68-0.64 4.48-3.84 7.68-8.32 7.68z" fill="#ffffff" /><path d="M275.84 935.68H96c-4.48 0-7.68-3.2-7.68-7.68v-129.28c0-4.48 3.2-7.68 7.68-7.68h179.84c4.48 0 7.68 3.2 7.68 7.68V928c0 4.48-3.2 7.68-7.68 7.68z m-172.16-14.72h164.48v-113.92H103.68v113.92z" fill="#ffffff" /><path d="M156.16 935.68c-4.48 0-7.68-3.2-7.68-7.68v-129.28c0-4.48 3.2-7.68 7.68-7.68s7.68 3.2 7.68 7.68V928c0 4.48-3.84 7.68-7.68 7.68zM215.68 935.68c-4.48 0-7.68-3.2-7.68-7.68v-129.28c0-4.48 3.2-7.68 7.68-7.68s7.68 3.2 7.68 7.68V928c0 4.48-3.2 7.68-7.68 7.68z" fill="#ffffff" /><path d="M275.84 871.04H96c-4.48 0-7.68-3.2-7.68-7.68s3.2-7.68 7.68-7.68h179.84c4.48 0 7.68 3.2 7.68 7.68s-3.2 7.68-7.68 7.68zM896 935.68h-179.84c-4.48 0-7.68-3.2-7.68-7.68v-129.28c0-4.48 3.2-7.68 7.68-7.68H896c4.48 0 7.68 3.2 7.68 7.68V928c0 4.48-3.2 7.68-7.68 7.68z m-172.16-14.72h164.48v-113.92h-164.48v113.92z" fill="#ffffff" /><path d="M776.32 935.68c-4.48 0-7.68-3.2-7.68-7.68v-129.28c0-4.48 3.2-7.68 7.68-7.68s7.68 3.2 7.68 7.68V928c0 4.48-3.84 7.68-7.68 7.68zM835.84 935.68c-4.48 0-7.68-3.2-7.68-7.68v-129.28c0-4.48 3.2-7.68 7.68-7.68s7.68 3.2 7.68 7.68V928c0 4.48-3.2 7.68-7.68 7.68z" fill="#ffffff" /><path d="M896 871.04h-179.84c-4.48 0-7.68-3.2-7.68-7.68s3.2-7.68 7.68-7.68H896c4.48 0 7.68 3.2 7.68 7.68s-3.2 7.68-7.68 7.68z" fill="#ffffff" /><path d="M844.16 743.68H605.44c-4.48 0-7.68-3.2-7.68-7.68V565.12c0-4.48 3.2-7.68 7.68-7.68h238.72c4.48 0 7.68 3.2 7.68 7.68V736c-0.64 4.48-3.84 7.68-7.68 7.68z m-231.04-15.36h223.36V572.8H613.12v155.52z" fill="#ffffff" /><path d="M684.8 743.68c-4.48 0-7.68-3.2-7.68-7.68V565.12c0-4.48 3.2-7.68 7.68-7.68s7.68 3.2 7.68 7.68V736c0 4.48-3.2 7.68-7.68 7.68zM764.16 743.68c-4.48 0-7.68-3.2-7.68-7.68V565.12c0-4.48 3.2-7.68 7.68-7.68s7.68 3.2 7.68 7.68V736c0 4.48-3.2 7.68-7.68 7.68z" fill="#ffffff" /><path d="M843.52 657.92H605.44c-4.48 0-7.68-3.2-7.68-7.68s3.2-7.68 7.68-7.68h238.08c4.48 0 7.68 3.2 7.68 7.68s-3.84 7.68-7.68 7.68zM568.96 494.08H423.68c-1.92 0-3.84-0.64-5.76-2.56-1.28-1.28-1.92-3.2-1.92-5.12l25.6-363.52c0-3.84 3.84-7.04 7.68-7.04h94.08c3.84 0 7.04 3.2 7.68 7.04L576 486.4c0 1.92-0.64 3.84-1.92 5.76-1.28 1.28-3.2 1.92-5.12 1.92z m-137.6-14.72h129.28l-24.32-348.16H456.32l-24.96 348.16z" fill="#ffffff" /><path d="M558.72 130.56H433.92c-4.48 0-7.68-3.2-7.68-7.68V50.56c0-4.48 3.2-7.68 7.68-7.68h124.8c4.48 0 7.68 3.2 7.68 7.68v72.96c-0.64 3.84-3.84 7.04-7.68 7.04z m-117.76-14.72H550.4v-57.6H440.96v57.6z" fill="#ffffff" /><path d="M786.56 494.08H665.6c-1.92 0-3.84-0.64-5.76-2.56-1.28-1.28-1.92-3.84-1.92-5.76l21.12-302.72c0-3.84 3.84-7.04 7.68-7.04h78.08c3.84 0 7.04 3.2 7.68 7.04l21.12 302.72c0 1.92-0.64 3.84-1.92 5.76-0.64 1.92-2.56 2.56-5.12 2.56z m-112.64-14.72h104.96l-20.48-288h-64l-20.48 288z" fill="#ffffff" /><path d="M778.24 191.36h-104.32c-4.48 0-7.68-3.2-7.68-7.68v-60.8c0-4.48 3.2-7.68 7.68-7.68h104.32c4.48 0 7.68 3.2 7.68 7.68v60.8c0 4.48-3.2 7.68-7.68 7.68z m-96.64-15.36h88.96v-45.44h-88.96v45.44zM318.08 163.84h-30.72c-4.48 0-7.68-3.2-7.68-7.68s3.2-7.68 7.68-7.68h30.72c4.48 0 7.68 3.2 7.68 7.68 0 3.84-3.84 7.68-7.68 7.68z" fill="#ffffff" /><path d="M308.48 240.64h-21.12c-4.48 0-7.68-3.2-7.68-7.68s3.2-7.68 7.68-7.68h21.12c4.48 0 7.68 3.2 7.68 7.68s-3.84 7.68-7.68 7.68zM310.4 266.24H288c-4.48 0-7.68-3.2-7.68-7.68s3.2-7.68 7.68-7.68h22.4c4.48 0 7.68 3.2 7.68 7.68-0.64 4.48-3.84 7.68-7.68 7.68zM306.56 215.04h-19.2c-4.48 0-7.68-3.2-7.68-7.68s3.2-7.68 7.68-7.68h19.2c4.48 0 7.68 3.2 7.68 7.68s-3.84 7.68-7.68 7.68zM311.68 291.84h-24.32c-4.48 0-7.68-3.2-7.68-7.68s3.2-7.68 7.68-7.68h24.32c4.48 0 7.68 3.2 7.68 7.68s-3.2 7.68-7.68 7.68zM317.44 369.28h-30.08c-4.48 0-7.68-3.2-7.68-7.68s3.2-7.68 7.68-7.68h30.08c4.48 0 7.68 3.2 7.68 7.68s-3.84 7.68-7.68 7.68zM319.36 394.88h-32c-4.48 0-7.68-3.2-7.68-7.68s3.2-7.68 7.68-7.68h32c4.48 0 7.68 3.2 7.68 7.68s-3.84 7.68-7.68 7.68zM315.52 343.68h-28.16c-4.48 0-7.68-3.2-7.68-7.68s3.2-7.68 7.68-7.68h28.16c4.48 0 7.68 3.2 7.68 7.68 0 3.84-3.2 7.68-7.68 7.68zM313.6 317.44h-26.24c-4.48 0-7.68-3.2-7.68-7.68s3.2-7.68 7.68-7.68H313.6c4.48 0 7.68 3.2 7.68 7.68s-3.2 7.68-7.68 7.68zM324.48 471.68h-37.12c-4.48 0-7.68-3.2-7.68-7.68s3.2-7.68 7.68-7.68h37.12c4.48 0 7.68 3.2 7.68 7.68s-3.2 7.68-7.68 7.68zM322.56 446.08h-35.2c-4.48 0-7.68-3.2-7.68-7.68s3.2-7.68 7.68-7.68h35.2c4.48 0 7.68 3.2 7.68 7.68s-3.2 7.68-7.68 7.68zM321.28 420.48H288c-4.48 0-7.68-3.2-7.68-7.68s3.2-7.68 7.68-7.68h33.28c4.48 0 7.68 3.2 7.68 7.68-0.64 4.48-3.84 7.68-7.68 7.68z" fill="#ffffff" /><path d="M326.4 494.08H205.44c-1.92 0-3.84-0.64-5.76-2.56-1.28-1.28-1.92-3.84-1.92-5.76l21.12-302.72c0-3.84 3.84-7.04 7.68-7.04h78.08c3.84 0 7.04 3.2 7.68 7.04L334.08 486.4c0 1.92-0.64 3.84-1.92 5.76-1.28 1.28-3.2 1.92-5.76 1.92z m-112.64-14.72h104.96l-20.48-288h-64l-20.48 288z" fill="#ffffff" /><path d="M318.08 191.36H213.76c-4.48 0-7.68-3.2-7.68-7.68v-60.8c0-4.48 3.2-7.68 7.68-7.68h104.32c4.48 0 7.68 3.2 7.68 7.68v60.8c0 4.48-3.84 7.68-7.68 7.68z m-96.64-15.36h88.96v-45.44H221.44v45.44z" fill="#ffffff" /><path d="M885.12 526.08H107.52c-2.56 0-4.48-1.28-5.76-2.56l-25.6-31.36c-1.92-2.56-1.92-5.12-0.64-8.32 1.28-2.56 3.84-4.48 7.04-4.48h828.8c3.2 0 5.76 1.92 7.04 4.48 1.28 2.56 0.64 5.76-0.64 8.32l-25.6 31.36c-2.56 1.28-5.12 2.56-7.04 2.56z m-774.4-15.36h770.56l13.44-16.64H97.28l13.44 16.64z" fill="#ffffff" /></svg>