<?xml version="1.0" standalone="no"?><!DOCTYPE svg PUBLIC "-//W3C//DTD SVG 1.1//EN" "http://www.w3.org/Graphics/SVG/1.1/DTD/svg11.dtd"><svg t="1557579353946" class="icon" style="" viewBox="0 0 1024 1024" version="1.1" xmlns="http://www.w3.org/2000/svg" p-id="10112" xmlns:xlink="http://www.w3.org/1999/xlink" width="200" height="200"><defs><style type="text/css"></style></defs><path d="M888.32 780.8H186.88c-15.36 0-25.6-10.24-25.6-25.6V327.68c0-15.36 10.24-25.6 25.6-25.6h701.44c15.36 0 25.6 10.24 25.6 25.6v427.52c0 15.36-12.8 25.6-25.6 25.6z m-675.84-51.2h650.24V353.28H212.48v376.32z" fill="#515151" p-id="10113"></path><path d="M537.6 655.36c-7.68 0-12.8-2.56-17.92-7.68L230.4 358.4c-10.24-10.24-10.24-25.6 0-35.84s25.6-10.24 35.84 0L537.6 593.92l276.48-263.68c10.24-10.24 25.6-10.24 35.84 0 10.24 10.24 10.24 25.6 0 35.84l-294.4 281.6c-5.12 5.12-12.8 7.68-17.92 7.68z" fill="#515151" p-id="10114"></path></svg>