<?xml version="1.0" standalone="no"?><!DOCTYPE svg PUBLIC "-//W3C//DTD SVG 1.1//EN" "http://www.w3.org/Graphics/SVG/1.1/DTD/svg11.dtd"><svg t="1557579137747" class="icon" style="" viewBox="0 0 1024 1024" version="1.1" xmlns="http://www.w3.org/2000/svg" p-id="7007" xmlns:xlink="http://www.w3.org/1999/xlink" width="200" height="200"><defs><style type="text/css"></style></defs><path d="M232.546845 126.584c4.472871 3.326768 12.692067 10.360975 24.995277 24.348548 14.007015 15.925714 29.741371 36.789904 45.505403 60.33618 31.93841 47.708582 50.934043 86.407975 55.326073 99.338473-1.019213 7.111978-5.357008 14.516622-12.770861 26.678616-11.618619 19.059078-27.530007 45.162596-27.530007 81.538061 0 13.372565 0 54.066383 111.431905 164.450423 27.454282 27.196409 55.747675 52.248991 79.667457 70.541613 36.337603 27.78788 60.390415 39.122019 83.020832 39.122019 32.060183 0 58.613956-13.836123 79.950913-24.952298 15.114233-7.875365 28.287253-14.737656 39.588647-15.507182 10.727319 2.924609 47.428196 20.23895 104.604406 60.134589 23.223934 16.205077 45.600571 33.31578 63.003939 48.179302 13.504572 11.532661 21.355377 19.415189 25.709545 24.209378-3.450589 24.896017-17.851577 50.595328-40.686654 72.0295-24.336268 22.842241-55.592133 37.60241-79.627549 37.60241-55.898101 0-126.166491-23.679305-203.206098-68.476581-74.319659-43.215244-151.780869-104.07024-224.009913-175.98513-70.954005-70.644967-131.392516-146.394185-174.780699-219.057111-21.712511-36.362162-38.442544-70.873164-49.727565-102.57519-11.033287-30.995945-16.627702-58.58121-16.627702-81.991386 0-9.473769 4.089132-21.304212 11.82328-34.21015 8.535397-14.241352 21.147646-29.132504 36.47268-43.063795 14.285355-12.984732 30.558993-24.717961 45.821605-33.037441C220.41248 130.835837 227.85908 127.978766 232.546845 126.584M237.497601 74.267471c-50.6731 0-172.280762 89.940428-172.280762 172.280762 0 240.686734 443.364807 699.250708 719.517287 699.250708 76.004021 0 172.284855-79.806627 172.284855-172.279738 0-31.66621-197.618846-172.276668-243.22658-172.276668-46.864354 0-81.071434 40.530089-121.601522 40.530089-40.540322 0-222.953861-178.610934-222.953861-222.948745 0-44.332694 40.535205-65.86715 40.535205-111.468744C409.773246 274.419 288.166607 74.267471 237.497601 74.267471L237.497601 74.267471z" p-id="7008" fill="#515151"></path></svg>